<svg width="140" height="35" viewBox="-1.5 -1.5 140.001 35" version="1.1" id="LogoIcon-BeZone" xmlns="http://www.w3.org/2000/svg"><g id="layer1" transform="translate(-14.507 -44.774)"><g id="Layer1006" transform="matrix(.35278 0 0 .35278 -21.56 -176.597)"><path d="M373.239 650.777c-13.957 0-22.777 11.735-22.777 27.706 0 15.487 7.987 27.29 22.082 27.29 13.264 0 22.708-9.511 22.708-28.124 0-14.235-7.224-26.872-22.013-26.872zm-81.117 46.511c-1.943.47-4.111.777-6.646.777-2.997 0-5.755-.768-7.695-2.512-3.664-3.28-3.678-14.023-1.762-18.318 1.098-2.464 3.081-4.517 6.194-4.517 5.068 0 6.667 4.93 6.596 8.96h-11.903l4.534 7.15h16.604c.209-1.111.278-2.569.278-4.097 0-12.497-6.11-19.165-15.485-19.165-11.318 0-17.708 9.583-17.708 20.693 0 12.013 6.806 19.513 18.75 19.513 4.68 0 9.094-.794 12.273-2.126zm50.044-45.679h-34.094v.151l5.363 8.461h15.957v.277l-23.402 38.75v5.762h38.32l-5.494-8.681h-19.563v-.277l22.913-38.055zm103.072 0h-9.303v16.042c0 8.64.277 16.25.901 23.054h-.138c-2.153-5.555-5.14-12.083-7.985-17.43l-11.25-21.666h-11.11v53.401h9.306v-16.388c0-9.514-.21-17.012-.628-23.61h.28c2.222 5.831 5.369 12.471 8.194 17.915l11.458 22.083h10.275zM484.38 696.4h-14.104v-36.179h18.468v-8.612h-28.746v53.401h29.842zm-7.253-14.861h10.578v-8.405h-15.904zm-232.3-5.347c5.695-2.153 8.542-6.668 8.542-11.528 0-4.376-2.014-7.915-5.208-10.07-3.68-2.569-10.39-3.4-16.85-3.4-5.206 0-10.484.486-13.538 1.11v52.498c2.498.347 6.318.692 11.386.692 9.514 0 17.614-1.735 21.224-4.998 3.125-2.777 4.86-6.804 4.86-10.973 0-6.803-4.444-11.525-10.416-13.052zm-16.846-17.013c.9-.21 2.29-.348 4.512-.348 4.584 0 10.67 1.736 10.67 7.014 0 4.374-1.353 7.5-7.18 7.5h-6.59l4.86 7.669c.435.062 2.994.144 3.408.24 3.775.883 6.82 3.298 6.82 7.992 0 6.043-6.849 8.54-12.404 8.54-1.806 0-3.057-.067-4.096-.276v-38.33zm144.98 0c7.846 0 11.528 9.096 11.528 18.888 0 10.764-3.96 19.304-11.599 19.304-7.568 0-11.664-8.61-11.664-19.094 0-9.793 3.678-19.098 11.736-19.098z" style="fill:#000;fill-opacity:1;fill-rule:evenodd;stroke-width:3px" id="path7"/><path d="m162.115 717.529 9.324-11.441 7.163-.006c7.88-8.136 17.732-23.517 22.848-34.737-3.18-6.562-7.681-12.708-11.097-18.182l2.225-2.727c-7.343-.053-23.411 1.16-14.443 14.68-19.32 3.378-28.066-25.333 4.102-21.265-3.843-5.357-8.437-10.958-13.572-16.341h-66.427v21.185c14.062 21.119 38.771 49.692 59.877 68.834zm-21.4-11.477c-13.045-14.447-25.541-31.235-38.477-51.264v51.264zm40.023-13.44c2.948-.59 4.746-1.928 5.21-4.116l-7.141-9.093 2.203 7.803z" style="fill:#e53236;fill-rule:evenodd" id="path8"/></g></g></svg>