<?xml version="1.0" encoding="UTF-8" standalone="no"?>
<!-- Created with Inkscape (http://www.inkscape.org/) -->

<svg
   width="119mm"
   height="28mm"
   viewBox="0 0 119 28"
   version="1.1"
   id="svg1"
   inkscape:version="1.3.2 (091e20e, 2023-11-25, custom)"
   sodipodi:docname="LogoBeZone.svg"
   xmlns:inkscape="http://www.inkscape.org/namespaces/inkscape"
   xmlns:sodipodi="http://sodipodi.sourceforge.net/DTD/sodipodi-0.dtd"
   xmlns="http://www.w3.org/2000/svg"
   xmlns:svg="http://www.w3.org/2000/svg">
  <sodipodi:namedview
     id="namedview1"
     pagecolor="#ffffff"
     bordercolor="#000000"
     borderopacity="0.25"
     inkscape:showpageshadow="2"
     inkscape:pageopacity="0.0"
     inkscape:pagecheckerboard="0"
     inkscape:deskcolor="#d1d1d1"
     inkscape:document-units="mm"
     inkscape:zoom="1.9578168"
     inkscape:cx="281.43594"
     inkscape:cy="162.68121"
     inkscape:window-width="3200"
     inkscape:window-height="1711"
     inkscape:window-x="-9"
     inkscape:window-y="-9"
     inkscape:window-maximized="1"
     inkscape:current-layer="layer1" />
  <defs
     id="defs1" />
  <g
     inkscape:label="Warstwa 1"
     inkscape:groupmode="layer"
     id="layer1">
    <g
       id="Layer1001"
       transform="matrix(0.35277732,0,0,0.35277732,-88.095361,-178.38959)">
      <path
         d="M 285.804,571.7957 C 275.6149,560.5106 265.8538,547.397 255.7491,531.7529 v 40.0428 z m 16.7159,8.9645 7.2833,-8.9371 5.5948,-0.005 c 6.1549,-6.3547 13.8509,-18.3693 17.8466,-27.1332 -2.4831,-5.1259 -5.9992,-9.9258 -8.6672,-14.2019 l 1.7379,-2.1305 c -5.7359,-0.0411 -18.2868,0.906 -11.2821,11.4664 -15.0897,2.6388 -21.9223,-19.7878 3.2048,-16.6096 -3.0024,-4.1842 -6.5905,-8.56 -10.6018,-12.7647 h -51.8871 v 16.5481 c 10.984,16.4965 30.2854,38.8151 46.7708,53.767 z m 14.5471,-19.4624 c 2.3026,-0.4606 3.7072,-1.5063 4.0694,-3.215 l -5.578,-7.1025 1.7212,6.0945 z"
         style="fill:#e51d31;fill-rule:evenodd"
         id="path3" />
      <path
         d="m 488.2277,527.6923 c -11.1926,0 -18.2658,9.4104 -18.2658,22.2182 0,12.4197 6.4046,21.8846 17.7083,21.8846 10.6367,0 18.2097,-7.6272 18.2097,-22.553 0,-11.416 -5.7926,-21.5498 -17.6522,-21.5498 z m -65.0503,37.2994 c -1.5579,0.3761 -3.2969,0.6219 -5.3299,0.6219 -2.4035,0 -4.6148,-0.6154 -6.1699,-2.0132 -2.9393,-2.6314 -2.9498,-11.2459 -1.4134,-14.6905 0.8807,-1.9761 2.4707,-3.6219 4.9666,-3.6219 4.0643,0 5.3467,3.9541 5.2897,7.1842 h -9.5451 l 3.6357,5.7344 h 13.3161 c 0.1669,-0.8909 0.2222,-2.0596 0.2222,-3.2856 0,-10.0224 -4.9005,-15.3692 -12.418,-15.3692 -9.0763,0 -14.2004,7.6848 -14.2004,16.5952 0,9.6333 5.4578,15.6481 15.0366,15.6481 3.7528,0 7.293,-0.6372 9.8416,-1.7051 z m 40.1321,-36.6322 h -27.3413 v 0.1214 l 4.3007,6.785 h 12.7956 v 0.2219 l -18.7659,31.0748 v 4.6213 h 30.7301 l -4.4059,-6.9619 h -15.6892 v -0.2225 l 18.3759,-30.5172 z m 82.6566,0 h -7.4605 v 12.8645 c 0,6.9282 0.2222,13.0309 0.7225,18.4876 h -0.1114 c -1.726,-4.4541 -4.1207,-9.6894 -6.4029,-13.9774 l -9.0215,-17.3747 h -8.9093 v 42.8244 h 7.4622 v -13.1425 c 0,-7.6303 -0.1678,-13.6429 -0.5032,-18.9343 h 0.224 c 1.7818,4.6772 4.3058,10.002 6.5713,14.3671 l 9.1885,17.7097 h 8.2403 z m 31.3891,35.9195 H 566.045 c 0,-9.6823 0,-19.3337 0,-29.0131 h 14.8102 v -6.9064 h -23.0525 v 42.8244 h 23.9307 z m -5.8161,-11.918 h 8.4824 v -6.7396 h -12.7536 z m -186.2895,-4.2879 c 4.5675,-1.726 6.8505,-5.3467 6.8505,-9.2438 0,-3.5093 -1.6149,-6.3476 -4.176,-8.0751 -2.9509,-2.0613 -8.333,-2.7272 -13.5125,-2.7272 -4.1754,0 -8.4078,0.3892 -10.857,0.8895 v 42.1005 c 2.0033,0.2778 5.0667,0.5547 9.1307,0.5547 7.6303,0 14.1251,-1.3915 17.0201,-4.0085 2.5064,-2.2266 3.8976,-5.4566 3.8976,-8.799 0,-5.4555 -3.5637,-9.2426 -8.3534,-10.4675 z m -13.5093,-13.6429 c 0.7222,-0.1678 1.8368,-0.2792 3.6189,-0.2792 3.6763,0 8.5561,1.3924 8.5561,5.6248 0,3.5079 -1.0848,6.0137 -5.7583,6.0137 h -5.2843 l 3.8985,6.1514 c 0.3478,0.0488 2.4001,0.1151 2.7323,0.1922 3.0268,0.7078 5.4697,2.6445 5.4697,6.4089 0,4.8461 -5.4932,6.8491 -9.9479,6.8491 -1.4482,0 -2.4517,-0.0545 -3.285,-0.2226 0,-10.2512 0,-20.4831 0,-30.7383 z m 116.2646,0 c 6.2921,0 9.2444,7.2938 9.2444,15.1467 0,8.6323 -3.1748,15.4805 -9.3013,15.4805 -6.0693,0 -9.3538,-6.9049 -9.3538,-15.3125 0,-7.8522 2.9495,-15.3147 9.4107,-15.3147 z"
         style="fill:#1b1918;fill-rule:evenodd"
         id="path4" />
    </g>
  </g>
</svg>
