<?xml version="1.0" encoding="UTF-8"?>
<!DOCTYPE svg PUBLIC "-//W3C//DTD SVG 1.1//EN" "http://www.w3.org/Graphics/SVG/1.1/DTD/svg11.dtd">
<!-- Creator: CorelDRAW SE (64-Bit) -->
<svg xmlns="http://www.w3.org/2000/svg" xml:space="preserve" width="21.2542mm" height="21.2542mm" version="1.1" style="shape-rendering:geometricPrecision; text-rendering:geometricPrecision; image-rendering:optimizeQuality; fill-rule:evenodd; clip-rule:evenodd"
viewBox="0 0 176.34 176.34"
 xmlns:xlink="http://www.w3.org/1999/xlink"
 xmlns:xodm="http://www.corel.com/coreldraw/odm/2003">
 <defs>
  <style type="text/css">
   <![CDATA[
    .fil0 {fill:#E53236}
    .fil1 {fill:white}
   ]]>
  </style>
 </defs>
 <g id="Warstwa_x0020_1">
  <metadata id="CorelCorpID_0Corel-Layer"/>
  <g id="_2771857963824">
   <circle class="fil0" cx="88.17" cy="88.17" r="88.17"/>
   <g>
    <path class="fil1" d="M91.81 19.99c6.69,0 12.11,4.9 12.11,14.05 0,9.15 -5.42,19.09 -12.11,19.09 -6.69,0 -12.11,-9.94 -12.11,-19.09 0,-9.15 5.42,-14.05 12.11,-14.05z"/>
    <path class="fil1" d="M45.27 109.69c2.69,-12.26 9.05,-24.18 14.48,-36.15 3.95,-8.69 8.58,-10.59 25.55,-13.56 0.8,-1.84 1.14,-3.68 1.33,-5.82 1.59,1.11 3.19,1.37 5.18,1.37 1.99,0 4.18,-0.49 5.97,-1.98 0.38,1.8 0.74,3.44 1.75,6.05 14.3,3.93 18.87,2.1 23.77,13.47 4.14,9.61 7.4,17.4 7.77,28.13l-0.06 -0.05c0.02,2.42 -0.93,4.53 -2.85,5.65 -6.94,-1.39 -12.74,-5.87 -17.66,-10.88 -0.7,6.53 -0.79,12.81 0.12,20.13 1.83,4.02 2.28,25.98 2.88,40.3l-42.19 0c0.39,-9.13 0.62,-23.58 1.47,-32.56 6.6,1.19 13.58,2.37 15.68,2.67 0.7,-0.44 1.65,-1.04 2.72,-1.77 -5.73,-0.76 -7.77,-1.79 -13.21,-3.51 -1.66,-0.57 -3.38,-1.08 -5.15,-1.55l-0.2 -0.05 -0.24 -0.06 -0.45 -0.12 -0.05 -0.01 -0.37 -0.1 -0.02 -0.01 -0.72 -0.18 -0.18 -0.04 -0.2 -0.05 -0.26 -0.06 -1.25 -0.31 -0.11 -0.03 -1.37 -0.33 -0.03 -0.01c-1.06,-0.26 -2.12,-0.52 -3.18,-0.78l-0.25 -0.06 -1.53 -0.39 -0.06 -0.01 -0.32 -0.09 -0.14 -0.04 -0.24 -0.07 -0.38 -0.1 -0.29 -0.08 -0.09 -0.02 -1.14 -0.32 -0.14 -0.04 -0.23 -0.07 -0.75 -0.22 -0.38 -0.11 -0 -0 -0.38 -0.12c-0.5,-0.16 -1,-0.31 -1.49,-0.48l-0.37 -0.12 -0.01 -0 -0.36 -0.13 -0.08 -0.03 -0.29 -0.1 -0.16 -0.06 -0.21 -0.08 -0.73 -0.27 0 0c-3.19,-1.21 -6.21,-2.7 -8.9,-4.68l0.07 -0.13 -0.08 0.01zm52.26 9.65c2.15,-2.41 3.7,-5.21 3.42,-8.22 -2.71,-0.57 -8.32,-1.13 -12.81,-1.44 -0.45,0.92 -1.08,1.89 -1.85,2.81 4.69,0.29 7.95,0.19 12.64,0.48 -0.22,2.26 -0.75,4.46 -1.41,6.37zm-10.47 -13.95c-1.06,-0.17 -2.51,-0.02 -3.51,0.13 -2.65,2.6 -4.95,5.26 -7.01,6.86l0.2 0.1c4.02,-1.28 7.82,-4.64 10.32,-7.09zm-12.59 5.92c0.01,-8.93 -1.73,-17.87 -3.14,-26.05 -4.15,6.16 -7.41,11.05 -11.42,16.38 -1.59,-0.09 -3.31,0.03 -4.94,0.4 -0.89,0.59 -1.74,1.45 -2.47,2.44 1.71,-0.44 3.6,-0.59 5.54,-0.37l0.22 0.07 0.04 0.01 0.18 0.06 0.09 0.03 0.13 0.04 0.13 0.04 0.09 0.03 0.18 0.06 0.05 0.01 0.22 0.08 0 0 0.22 0.08 0.04 0.01 0.18 0.06 0.09 0.03 0.14 0.05 0.13 0.05 0.09 0.03 0.18 0.06 0.05 0.02 0.22 0.08 0 0 0.22 0.08 0.04 0.02 0.18 0.07 0.09 0.03 0.14 0.05 0.13 0.05 0.09 0.04 0.18 0.07 0.05 0.02 0.22 0.09 0 0 0.22 0.09 0.04 0.02 0.18 0.07 0.09 0.03 0.14 0.06 0.13 0.05 0.27 0.11 0.05 0.02 0.22 0.09 0 0 0.22 0.09 0.04 0.02 0.18 0.08 0.08 0.03 0.14 0.06 0.13 0.05 0.1 0.04 0.44 0.19 0.01 0 0.22 0.1 0.04 0.02 0.18 0.08 0.08 0.04 0.14 0.06 0.13 0.06 0.1 0.04 0.17 0.07 0.05 0.02 0.21 0.09 0.01 0 0.22 0.1 0.04 0.02 0.18 0.08 0.08 0.04 0.14 0.06 0.12 0.06 0.1 0.04 0.17 0.08 0.05 0.02 0.21 0.1 0.01 0 0.22 0.1 0.03 0.02 0.18 0.08 0.08 0.04 0.14 0.07 0.12 0.06 0.1 0.04 0.16 0.08 0.05 0.02 0.2 0.1 0.01 0 0.21 0.1 0.03 0.02 0.18 0.09 0.07 0.03 0.14 0.07 0.12 0.06 0.1 0.05 0.16 0.08 0.05 0.03 0.2 0.1 0.01 0.01 0.21 0.1 0.03 0.01 0.18 0.09 0.07 0.03 0.14 0.07 0.11 0.05 0.09 0.05 0.15 0.07 0.05 0.03 0.19 0.09 0.01 0.01 0.2 0.1 0.03 0.01 0.18 0.09 0.4 0.2 -0 -0c0.85,0.43 1.68,0.85 2.48,1.25zm48.91 -26.05c1.25,1.7 2.14,4.24 2.89,6.64 -5.58,-4.63 -15.46,-10.34 -20.55,-13.39 -2.1,-3.64 -2.94,-6.77 -3.46,-10.29 0.29,0.2 0.64,0.47 1.13,0.85 1.02,2.2 2.46,5.77 3.88,8.52 5.85,2.35 10.56,3.96 16.11,7.68zm-20.21 2.38c-5.5,-2.04 -11.97,-1.75 -17.96,-4.4l-0.27 -1.08c6.42,1.54 10.67,0.75 15.89,2.69 0.75,0.88 1.53,1.81 2.34,2.78zm-19.69 -16.03c0.07,-2.05 0.47,-3.9 1.46,-5.07 2.45,0.06 8.56,1.53 13.03,4.32 0.38,-2.16 1.12,-3.01 1.51,-3.54 0.55,0.12 0.95,0.2 1.28,0.28 -0.77,1.02 -1.33,3.98 -1.45,7.09 -4.47,-2.78 -7.96,-4.35 -13.91,-6.32 -0.88,0.91 -1.5,2.03 -1.92,3.24z"/>
   </g>
  </g>
 </g>
</svg>
