<?xml version="1.0" encoding="UTF-8"?>
<!DOCTYPE svg PUBLIC "-//W3C//DTD SVG 1.1//EN" "http://www.w3.org/Graphics/SVG/1.1/DTD/svg11.dtd">
<!-- Creator: CorelDRAW SE (64-Bit) -->
<svg xmlns="http://www.w3.org/2000/svg" xml:space="preserve" width="21.2542mm" height="21.2542mm" version="1.1" style="shape-rendering:geometricPrecision; text-rendering:geometricPrecision; image-rendering:optimizeQuality; fill-rule:evenodd; clip-rule:evenodd"
viewBox="0 0 1571.2 1571.2"
 xmlns:xlink="http://www.w3.org/1999/xlink"
 xmlns:xodm="http://www.corel.com/coreldraw/odm/2003">
 <defs>
  <style type="text/css">
   <![CDATA[
    .fil0 {fill:#E53236}
    .fil1 {fill:white}
   ]]>
  </style>
 </defs>
 <g id="Warstwa_x0020_1">
  <metadata id="CorelCorpID_0Corel-Layer"/>
  <g id="_2771854620960">
   <circle class="fil0" cx="785.6" cy="785.6" r="785.6"/>
   <path class="fil1" d="M450.88 587.93c40.04,-36.49 107.4,-102.26 183.07,-135.14 43.73,-3.3 101.47,-2.07 154.63,8.41 -33.75,119.43 -133.93,327.11 -218.66,412.99 -32.27,32.7 -47.8,52.62 -116.64,80.55 -100.35,-3.15 -247.83,-88.03 -297.32,-103.92l13.87 83.31c72.7,49.88 161.57,101.18 266.51,129.52 76.59,-6.14 216.95,-57.01 285.98,-81.5 -45.86,-42.68 -82.29,-94.02 -77.55,-142.83l7.95 -15.93c-0.74,49.34 38.4,89.6 152.62,168.91 25.64,14.13 53.38,31.58 127.12,85.29l7.7 5.07c-0.01,0.18 -0.04,0.33 -0.08,0.49l1.23 0.89c-15.55,125.18 -35.23,231.44 -61.02,341.3l75.65 0c67.54,-167.84 71.2,-178.22 120.83,-344.19 -15.94,-76.05 -55.85,-161.97 -207.27,-263.97 7.64,-26.86 47,-88.59 74.17,-121.97 -28.06,-45.17 -54.63,-93.03 -72.74,-140.8l6.3 -9.42c76.32,116.17 123.83,182.83 217.65,263.49 1.17,0.69 2.34,1.35 3.5,1.97 109.21,-4.27 207.56,-13.33 259.94,-30.09l9.81 -58.92c-90.4,6.32 -157.56,8.5 -238.96,-8.89 -70.77,-108.21 -85.54,-219.79 -138.81,-285.31 -65.45,-80.51 -167.82,-110.24 -373.11,-60.37 -49.34,32.52 -122.53,101.1 -175.78,164.59l9.4 56.46zm207.34 91.82c-41.26,51.3 -157.41,167.96 -234.2,210.52 -96.98,-16.83 -236.55,-69.06 -294.88,-94.3l1.01 10.21c56.53,27.05 196.66,90.31 306.76,110.55 85.26,-43.45 186.41,-168.52 231.4,-235.34l-10.09 -1.65zm490.76 -243.48c-38.9,11.92 -56.05,25.89 -86.37,15.04 -64.6,-23.15 -94.31,-137.26 -28.74,-197.37 73.32,-67.2 149.1,-24.05 174.67,33.38 17.48,39.26 6.22,68.45 -14.01,95.72 -23.72,-5.51 -44.47,-16.11 -71.84,-31.42l-2.22 7.56c14.81,19.94 35.69,34.09 56.03,45.77 -9.03,10.25 -18.57,20.54 -27.53,31.33zm-704.02 39.15c46.88,-50.4 113.24,-119.94 152.16,-145.59 171.15,-41.58 269.57,-26.92 334.81,26.72 -64.32,-67.43 -158.71,-97.19 -346.12,-51.66 -35.77,23.58 -105.46,105.85 -142.87,157.63l2.02 12.91z"/>
  </g>
 </g>
</svg>
