<?xml version="1.0" encoding="UTF-8"?>
<!DOCTYPE svg PUBLIC "-//W3C//DTD SVG 1.1//EN" "http://www.w3.org/Graphics/SVG/1.1/DTD/svg11.dtd">
<!-- Creator: CorelDRAW SE (64-Bit) -->
<svg xmlns="http://www.w3.org/2000/svg" xml:space="preserve" width="21.2542mm" height="21.2542mm" version="1.1" style="shape-rendering:geometricPrecision; text-rendering:geometricPrecision; image-rendering:optimizeQuality; fill-rule:evenodd; clip-rule:evenodd"
viewBox="0 0 280.54 280.54"
 xmlns:xlink="http://www.w3.org/1999/xlink"
 xmlns:xodm="http://www.corel.com/coreldraw/odm/2003">
 <defs>
  <style type="text/css">
   <![CDATA[
    .fil0 {fill:#E53236}
    .fil1 {fill:white}
   ]]>
  </style>
 </defs>
 <g id="Warstwa_x0020_1">
  <metadata id="CorelCorpID_0Corel-Layer"/>
  <g id="_2771860790080">
   <circle class="fil0" cx="140.27" cy="140.27" r="140.27"/>
   <g>
    <path class="fil1" d="M51.24 108.07c-12.07,-12.17 -8.65,-25.93 0.69,-33.18 9.66,-7.5 25.62,-8.04 34.78,7.37l-1.05 3.43c-6.77,-11.92 -21.96,-12.14 -29.56,-5.94 -7.53,6.15 -9.34,17.84 -2.01,27.62l-2.84 0.7z"/>
    <path class="fil1" d="M125.09 43.27c3.6,-12.44 13.53,-21.68 26.48,-20.89 7.96,0.48 15.95,6.09 18.99,13.7l-4.35 3.38c-2.27,-5.69 -9.05,-10.39 -14.95,-10.75 -10.77,-0.65 -18.89,7.36 -23.66,16.28l-2.51 -1.71zm54.73 -0.36c7.93,-4.37 15.63,-7.65 24.09,-3.99 5.63,2.43 10.54,8.17 11.4,14.45l-5.28 0.71c-0.6,-4.35 -4.39,-7.6 -8.23,-9.25 -6.97,-3.01 -14.9,-1.82 -21.41,1.77l-0.57 -3.68zm42.38 21.19c6.38,0.99 12.78,4.6 15.65,10.46 3.89,7.94 0.66,15.36 -4.82,22.13l-3.06 -0.2c3.2,-5.76 5.37,-13.12 2.3,-19.39 -2.09,-4.28 -6.24,-7.02 -10.88,-7.73l0.81 -5.26zm22.63 44.9c5.73,5.51 6.53,13.13 4.24,20.65 -1.79,5.87 -5.76,9.65 -10.92,13.23l-4.05 -0.79c4.19,-2.91 8.03,-9.04 9.47,-13.78 1.68,-5.52 0.99,-10.79 -3.24,-14.87l4.49 -4.44z"/>
    <path class="fil1" d="M182.38 63.3c-8.51,13.8 -29.51,41.96 -37.43,44.51 -3.15,-8.93 6.6,-34.39 11.42,-58 1.98,-9.72 -2.31,-13.01 -5.42,-13.05 -3.16,-0.04 -6.73,3.34 -10.5,11.78 -10.87,24.28 -19.69,70.28 -35.43,77.79 8.52,9.98 17.83,23.07 18.2,34.74l-1.93 4c-1.53,-14.14 -9.59,-22.6 -26.69,-40.28 -10.23,-8.58 -7.53,-24.02 -19.34,-31.73 -20.22,-13.21 -19.47,2.75 -14.09,16.32 6.49,16.39 11.5,24.93 13,44.43 0.45,7.53 1.48,20.91 7.69,25.56 8.65,6.47 -10.6,39.35 -19.12,57.05 11,12.27 38.56,5.48 56.32,8.61 5.71,-17.02 8.65,-24.86 13.23,-34.67 2.44,-5.2 5.76,-6.98 10.49,-9.26 15.76,-7.61 24.71,-24.64 37.41,-36.83 16.84,-14.23 41.87,-27.57 43.91,-30.07 9.42,-5.17 5.27,-20.25 -19.42,-4.6 -10.22,6.48 -21.96,11.52 -28.01,8.94 0.32,-4.35 32.61,-37.25 39.29,-46.09 6.87,-9.09 7.2,-13.41 5.04,-15.53 -2.59,-2.54 -8.94,-1.46 -14.38,4.59 -13.35,14.85 -29.36,29.76 -40.11,37.84 6.71,-15.28 22.36,-36.56 32.92,-51.19 14.83,-20.78 -6.7,-23.88 -17.03,-4.84z"/>
   </g>
  </g>
 </g>
</svg>
