<?xml version="1.0" encoding="UTF-8"?>
<!DOCTYPE svg PUBLIC "-//W3C//DTD SVG 1.1//EN" "http://www.w3.org/Graphics/SVG/1.1/DTD/svg11.dtd">
<!-- Creator: CorelDRAW SE (64-Bit) -->
<svg xmlns="http://www.w3.org/2000/svg" xml:space="preserve" width="21.2542mm" height="21.2542mm" version="1.1" style="shape-rendering:geometricPrecision; text-rendering:geometricPrecision; image-rendering:optimizeQuality; fill-rule:evenodd; clip-rule:evenodd"
viewBox="0 0 199.23 199.23"
 xmlns:xlink="http://www.w3.org/1999/xlink"
 xmlns:xodm="http://www.corel.com/coreldraw/odm/2003">
 <defs>
  <style type="text/css">
   <![CDATA[
    .fil0 {fill:#E53236}
    .fil1 {fill:white}
   ]]>
  </style>
 </defs>
 <g id="Warstwa_x0020_1">
  <metadata id="CorelCorpID_0Corel-Layer"/>
  <g id="_2771885167472">
   <circle class="fil0" cx="99.61" cy="99.61" r="99.61"/>
   <path class="fil1" d="M72.96 43.18l3.53 9.74c0.34,0.93 1.37,1.44 2.6,1.93 9.43,3.78 26.45,-7.02 25.91,-20.69 -0.6,-15.29 -13.39,-17.84 -22.34,-13.66 -6.82,3.18 -8.45,8.12 -9.06,13.88 2.46,0.14 4.94,0.54 7.27,1.49l0.29 1.16c-2.99,0.1 -5.49,0.24 -7.82,0.62 -0.11,1.8 -0.2,3.66 -0.38,5.55zm78.4 95.68c-0.43,-1.19 -4.53,-5.53 -5.88,-8.33 -7.21,-14.97 2.2,-26.85 -2.94,-39.31 -1.05,-2.56 -1.97,-5.51 -2.65,-8.07 -2.41,-9.11 -2.71,-7.91 -8.48,-16.13 -1.11,-1.58 -4.77,-7.79 -6.31,-7.53 -4.95,0.82 -0.82,11.75 1.09,15.25 1.6,2.94 3.67,5.28 3.84,8.16l0.02 5.9c0.02,0.83 0.07,0.83 0.03,1.73l0.05 9.84c-0.04,0.79 -0.17,1.15 -0.19,1.94 -0.04,1.24 0.45,2.49 -0.74,3.49 -1.62,-0.87 -1.27,-3.58 -1.34,-5.12 -0.09,-2 -0.15,-3.52 -0.35,-5.69 -0.24,-2.65 -1.55,-10.81 -5.94,-8.41 -4.34,2.37 -2.19,12.64 -2.02,16.42 0.45,9.46 -6.57,18.23 -1.09,27.73 3.29,5.7 6.7,7.78 9.2,10.79 5.16,7.44 13.33,14.08 22.63,23.15 2.65,-10.48 0.19,-16.1 1.07,-25.83zm-51.99 -77.07c-0.18,-3.82 0.32,-6.69 0.74,-10.51 -3.39,2.64 -8.7,5.6 -12.43,7.17 -2.52,11.91 -12.45,11.12 -20.87,34.62 -1.62,14.65 2.13,36.27 3.95,51.07 0.73,5.9 0.32,11.65 -0.19,17.41 5.88,-16.31 13.54,-36.32 18.8,-43.32 -1.84,-9.98 -3.97,-16.4 -5.43,-29.44l4.29 -4.24c1.35,18.72 1.54,20.7 2.36,33.85 -7.23,15.25 -17.66,44.52 -20.7,62.14l5.74 0c9.05,-13.79 19.64,-35.5 25.53,-50.33 3.21,-18.66 11.51,-39.45 3.22,-57.45 -1.8,-3.89 -3.7,-7.98 -5,-10.97zm-15.68 118.75l22.45 0c7.54,-27.1 -2.76,-32.84 -4.76,-44.38 -4.08,12.91 -12.02,31.91 -17.7,44.38z"/>
  </g>
 </g>
</svg>
