<?xml version="1.0" encoding="UTF-8"?>
<!DOCTYPE svg PUBLIC "-//W3C//DTD SVG 1.1//EN" "http://www.w3.org/Graphics/SVG/1.1/DTD/svg11.dtd">
<!-- Creator: CorelDRAW SE (64-Bit) -->
<svg xmlns="http://www.w3.org/2000/svg" xml:space="preserve" width="21.2542mm" height="21.2542mm" version="1.1" style="shape-rendering:geometricPrecision; text-rendering:geometricPrecision; image-rendering:optimizeQuality; fill-rule:evenodd; clip-rule:evenodd"
viewBox="0 0 343.54 343.54"
 xmlns:xlink="http://www.w3.org/1999/xlink"
 xmlns:xodm="http://www.corel.com/coreldraw/odm/2003">
 <defs>
  <style type="text/css">
   <![CDATA[
    .fil0 {fill:#E53236}
    .fil1 {fill:white}
   ]]>
  </style>
 </defs>
 <g id="Warstwa_x0020_1">
  <metadata id="CorelCorpID_0Corel-Layer"/>
  <g id="_2771858858720">
   <circle class="fil0" cx="171.77" cy="171.77" r="171.77"/>
   <g>
    <path class="fil1" d="M138 287.54c-11.74,-0.96 -20.91,-9.01 -25.88,-17.15 -5.96,-12.53 -6.8,-26.61 6.4,-40.28 -1.44,-1.02 -1.1,-1.51 -3.8,-2.47 -10.99,6.14 -16.54,16.64 -16.41,27.68 -13.71,-7.65 -20.74,-26.34 -20.99,-46.27 -3.53,-1.6 -9.66,-8.88 -12.09,-12.72 -11.69,-18.5 -6.85,-49.03 7.14,-63.89 -0.38,-16.93 1.23,-22.68 9.27,-32.26 6.82,-8.11 11.79,-13.64 23.6,-15.77 0.4,4.08 1.66,8.17 3.87,12.02 2.17,0.3 2.12,-0.22 3.46,-0.45 -2.26,-9 -1.37,-16.33 1.39,-22.35 4.28,-8.3 10.47,-13.88 20.06,-16.65 14.02,-4.04 31.49,3.12 31.49,22.2l0 25.77c-14.32,-0.9 -21.71,-12.38 -25.9,-25.01l-4.83 1.4c1.65,19.54 15.86,32.14 30.73,29.17l0 26.68 -0.26 -0.23c-12.1,12.63 -28.41,21.07 -49.2,7.01 -0.67,1.67 -1.25,1.4 -1.56,4.35 14.49,17.15 37.44,16.71 51.02,0.54l0 90.42c-9.9,-5.5 -21.56,-3.37 -29.03,7.11 0.38,2.39 0.79,2.17 1.37,3.52 10.4,-7.96 19.71,-6.68 27.66,-1.53l0 10.12c0,19 -9.58,30.51 -27.51,29.03zm-36.02 -102.12c2.21,-17.83 -0.57,-36.67 -20.76,-45.63 0.77,-1.58 0.29,-1.9 2.11,-3.95 21.52,2.03 33.54,26.87 24.41,51.1l-5.77 -1.52z"/>
    <path class="fil1" d="M205.54 287.54c11.74,-0.96 20.91,-9.01 25.88,-17.15 5.96,-12.53 6.8,-26.61 -6.4,-40.28 1.44,-1.02 1.1,-1.51 3.8,-2.47 10.99,6.14 16.54,16.64 16.41,27.68 13.71,-7.65 20.74,-26.34 20.99,-46.27 3.53,-1.6 9.67,-8.88 12.09,-12.72 11.69,-18.5 6.85,-49.03 -7.14,-63.89 0.38,-16.93 -1.23,-22.68 -9.27,-32.26 -6.82,-8.11 -11.79,-13.64 -23.6,-15.77 -0.4,4.08 -1.66,8.17 -3.87,12.02 -2.17,0.3 -2.12,-0.22 -3.46,-0.45 2.26,-9 1.37,-16.33 -1.39,-22.35 -4.28,-8.3 -10.47,-13.88 -20.06,-16.65 -14.02,-4.04 -31.49,3.12 -31.49,22.2l0 25.77c14.33,-0.9 21.71,-12.38 25.9,-25.01l4.83 1.4c-1.65,19.54 -15.86,32.14 -30.73,29.17l0 28.93c11.82,11.18 27.31,17.64 46.7,4.53 0.67,1.67 1.25,1.4 1.56,4.35 -13.55,16.03 -34.49,16.69 -48.27,3.49l0 87.47c9.9,-5.5 21.56,-3.37 29.03,7.11 -0.38,2.39 -0.79,2.17 -1.37,3.52 -10.4,-7.96 -19.71,-6.68 -27.66,-1.53l0 10.12c0,19 9.58,30.51 27.51,29.03zm36.02 -102.12c-2.21,-17.83 0.57,-36.67 20.76,-45.63 -0.77,-1.58 -0.29,-1.9 -2.11,-3.95 -21.52,2.03 -33.54,26.87 -24.41,51.1l5.77 -1.52z"/>
   </g>
  </g>
 </g>
</svg>
