<?xml version="1.0" encoding="UTF-8"?>
<!DOCTYPE svg PUBLIC "-//W3C//DTD SVG 1.1//EN" "http://www.w3.org/Graphics/SVG/1.1/DTD/svg11.dtd">
<!-- Creator: CorelDRAW SE (64-Bit) -->
<svg xmlns="http://www.w3.org/2000/svg" xml:space="preserve" width="21.2542mm" height="21.2542mm" version="1.1" style="shape-rendering:geometricPrecision; text-rendering:geometricPrecision; image-rendering:optimizeQuality; fill-rule:evenodd; clip-rule:evenodd"
viewBox="0 0 657.63 657.63"
 xmlns:xlink="http://www.w3.org/1999/xlink"
 xmlns:xodm="http://www.corel.com/coreldraw/odm/2003">
 <defs>
  <style type="text/css">
   <![CDATA[
    .fil0 {fill:#E53236}
    .fil1 {fill:white}
   ]]>
  </style>
 </defs>
 <g id="Warstwa_x0020_1">
  <metadata id="CorelCorpID_0Corel-Layer"/>
  <g id="_2771858850320">
   <circle class="fil0" cx="328.82" cy="328.81" r="328.81"/>
   <g>
    <path class="fil1" d="M409.3 142.52l-11.65 32.14c-1.11,3.07 -4.52,4.74 -8.58,6.37 -31.12,12.48 -87.3,-23.19 -85.52,-68.31 1.99,-50.46 44.21,-58.89 73.75,-45.11 22.51,10.51 27.89,26.8 29.9,45.81 -8.12,0.45 -16.32,1.78 -24,4.93l-0.96 3.82c9.87,0.34 18.13,0.8 25.81,2.04 0.37,5.94 0.67,12.08 1.25,18.32z"/>
    <path class="fil1" d="M322.15 203.96c0.61,-12.61 -1.07,-22.08 -2.45,-34.7 11.19,8.72 28.71,18.5 41.03,23.67 8.32,39.32 41.09,36.71 68.88,114.28 5.34,48.36 -7.03,119.74 -13.03,168.58 -2.39,19.48 -1.06,38.44 0.64,57.48 -19.41,-53.83 -44.71,-119.9 -62.05,-142.98 6.06,-32.93 13.09,-54.13 17.94,-97.19l-14.15 -14c-4.45,61.81 -5.07,68.33 -7.8,111.72 23.85,50.33 58.28,146.94 68.32,205.12l-18.94 0c-29.87,-45.53 -64.84,-117.18 -84.27,-166.12 -10.6,-61.59 -38,-130.21 -10.62,-189.63 5.93,-12.85 12.2,-26.35 16.5,-36.23zm51.77 391.98l-74.11 0c-24.89,-89.47 9.1,-108.41 15.7,-146.5 13.47,42.63 39.67,105.33 58.41,146.5z"/>
    <path class="fil1" d="M237 170.75l10.21 4.51c18.16,25.58 7.58,61.59 -2.61,106.74 -9.5,42.12 26.53,72.63 27.69,134.38 0.8,42.81 -39.38,63.4 -33.56,108.8l-6.4 3.18c-20.2,-52.69 21.02,-92.45 15.82,-129.21 -6.25,-44.18 -29.45,-75.04 -17.75,-117.66 10.67,-38.86 23.76,-78.9 6.6,-110.75z"/>
   </g>
  </g>
 </g>
</svg>
