<?xml version="1.0" encoding="UTF-8" standalone="no"?>
<!-- Created with Inkscape (http://www.inkscape.org/) -->

<svg
   width="140px"
   height="35px"
   viewBox="-1.5 -1.5 140.00134 35.000335"
   version="1.1"
   id="LogoIcon-BeZone"
   xmlns="http://www.w3.org/2000/svg"
   xmlns:svg="http://www.w3.org/2000/svg">
  <defs
     id="defs1" />
  <g
     id="layer1"
     transform="translate(-14.506879,-44.774378)">
    <g
       id="Layer1006"
       transform="matrix(0.35277732,0,0,0.35277732,-21.560259,-176.59678)">
      <path
         d="m 373.23871,650.77671 c -13.9566,0 -22.7769,11.7354 -22.7769,27.7065 0,15.4866 7.9869,27.2892 22.0821,27.2892 13.2636,0 22.7082,-9.5109 22.7082,-28.1235 0,-14.2353 -7.2243,-26.8722 -22.0134,-26.8722 z m -81.1164,46.5114 c -1.9431,0.4695 -4.1118,0.7764 -6.6468,0.7764 -2.9967,0 -5.7546,-0.768 -7.6944,-2.5113 -3.6642,-3.2808 -3.6777,-14.0229 -1.7619,-18.3183 1.0977,-2.4636 3.081,-4.5165 6.1935,-4.5165 5.0682,0 6.6669,4.9305 6.5964,8.9589 h -11.9028 l 4.5333,7.1511 h 16.6047 c 0.2085,-1.1115 0.2781,-2.5692 0.2781,-4.0974 0,-12.4974 -6.111,-19.1652 -15.4857,-19.1652 -11.3178,0 -17.7078,9.5832 -17.7078,20.6934 0,12.0126 6.8058,19.5132 18.7506,19.5132 4.6797,0 9.0939,-0.7944 12.2727,-2.1261 z m 50.0439,-45.6789 h -34.0941 v 0.1512 l 5.3628,8.4606 h 15.9567 v 0.2772 l -23.4012,38.7492 v 5.763 h 38.3196 l -5.4936,-8.6817 h -19.5639 v -0.2772 l 22.9137,-38.0541 z m 103.0719,0 h -9.3033 v 16.0419 c 0,8.6391 0.2772,16.2492 0.9015,23.0541 h -0.1386 c -2.1531,-5.5548 -5.139,-12.0834 -7.9845,-17.4306 l -11.2506,-21.6654 h -11.1096 v 53.4012 h 9.306 v -16.3887 c 0,-9.5142 -0.21,-17.0121 -0.6276,-23.6103 h 0.279 c 2.2221,5.832 5.3694,12.4719 8.1942,17.9151 l 11.4582,22.0839 h 10.2753 z m 39.1419,44.7909 h -14.1036 c 0,-12.0738 0,-24.1086 0,-36.1791 h 18.468 v -8.6118 h -28.746 v 53.4012 h 29.8413 z m -7.2528,-14.8614 h 10.578 v -8.4045 h -15.9042 z m -232.3005,-5.3472 c 5.6952,-2.1525 8.5422,-6.6672 8.5422,-11.5272 0,-4.3761 -2.0136,-7.9155 -5.2077,-10.0695 -3.6798,-2.5698 -10.3911,-3.4008 -16.8498,-3.4008 -5.2068,0 -10.4844,0.4857 -13.5381,1.11 v 52.4982 c 2.4975,0.3468 6.3174,0.6921 11.3859,0.6921 9.5142,0 17.6133,-1.7349 21.2241,-4.9986 3.1242,-2.7765 4.8591,-6.804 4.8591,-10.9725 0,-6.8034 -4.4433,-11.5254 -10.4157,-13.0527 z m -16.8462,-17.0121 c 0.9006,-0.21 2.2908,-0.3486 4.5129,-0.3486 4.5837,0 10.6692,1.7364 10.6692,7.014 0,4.3743 -1.353,7.4994 -7.1799,7.4994 h -6.5898 l 4.8609,7.6698 c 0.4338,0.0621 2.9934,0.1437 3.4074,0.2406 3.7743,0.882 6.8202,3.297 6.8202,7.9914 0,6.0429 -6.849,8.5404 -12.4047,8.5404 -1.8054,0 -3.057,-0.0672 -4.0962,-0.2763 0,-12.7842 0,-25.5426 0,-38.3307 z m 144.981,0 c 7.8459,0 11.5272,9.0957 11.5272,18.8871 0,10.7643 -3.9588,19.3041 -11.5986,19.3041 -7.5678,0 -11.664,-8.6103 -11.664,-19.0941 0,-9.7923 3.678,-19.0971 11.7354,-19.0971 z"
         style="fill:#000000;fill-opacity:1;fill-rule:evenodd;stroke-width:3"
         id="path7" />
      <path
         d="m 162.11509,717.52871 9.3237,-11.4412 7.1628,-0.006 c 7.8798,-8.1355 17.7325,-23.5168 22.8481,-34.7364 -3.1796,-6.5622 -7.681,-12.7077 -11.0962,-18.1817 l 2.2249,-2.7277 c -7.3431,-0.0528 -23.4116,1.1596 -14.4436,14.6795 -19.319,3.3786 -28.0656,-25.3327 4.1026,-21.2641 -3.8435,-5.3567 -8.4371,-10.9585 -13.5726,-16.3415 h -66.4271 v 21.185 c 14.0621,21.1193 38.7717,49.6919 59.8774,68.834 z m -21.4008,-11.4769 c -13.0439,-14.4473 -25.5404,-31.2353 -38.4766,-51.2634 v 51.2634 z m 40.0241,-13.4396 c 2.9477,-0.5894 4.7458,-1.9284 5.2092,-4.1159 l -7.1407,-9.093 2.2033,7.8026 z"
         style="fill:#e53236;fill-rule:evenodd"
         id="path8" />
    </g>
  </g>
</svg>
